<mxfile host="app.diagrams.net" modified="2023-05-20T22:56:39.608Z" agent="5.0 (Windows NT 10.0; Win64; x64) AppleWebKit/537.36 (KHTML, like Gecko) Chrome/113.0.0.0 Safari/537.36" etag="LFNaZzOAgMACV3uuPdjp" version="20.4.0" type="github" pages="3">
  <diagram id="nJC5CbtD6ITVbMb1Q73q" name="Use Case">
    <mxGraphModel dx="1407" dy="1702" grid="1" gridSize="10" guides="1" tooltips="1" connect="1" arrows="1" fold="1" page="1" pageScale="1" pageWidth="850" pageHeight="1100" math="0" shadow="0">
      <root>
        <mxCell id="0" />
        <mxCell id="1" parent="0" />
        <mxCell id="D7RnyqrD7TSsdvKjuRl5-16" value="" style="rounded=0;whiteSpace=wrap;html=1;" vertex="1" parent="1">
          <mxGeometry x="210" y="550" width="430" height="240" as="geometry" />
        </mxCell>
        <mxCell id="D7RnyqrD7TSsdvKjuRl5-15" value="" style="rounded=0;whiteSpace=wrap;html=1;" vertex="1" parent="1">
          <mxGeometry x="210" y="-120" width="430" height="650" as="geometry" />
        </mxCell>
        <mxCell id="otnVlE3y3-r2m2NQ43wk-14" style="edgeStyle=orthogonalEdgeStyle;rounded=0;orthogonalLoop=1;jettySize=auto;html=1;exitX=0.5;exitY=0.5;exitDx=0;exitDy=0;exitPerimeter=0;entryX=0;entryY=0.5;entryDx=0;entryDy=0;" parent="1" source="otnVlE3y3-r2m2NQ43wk-1" target="otnVlE3y3-r2m2NQ43wk-7" edge="1">
          <mxGeometry relative="1" as="geometry" />
        </mxCell>
        <mxCell id="D7RnyqrD7TSsdvKjuRl5-11" style="edgeStyle=orthogonalEdgeStyle;rounded=0;orthogonalLoop=1;jettySize=auto;html=1;exitX=1;exitY=1;exitDx=0;exitDy=0;exitPerimeter=0;entryX=0;entryY=0.5;entryDx=0;entryDy=0;" edge="1" parent="1" source="otnVlE3y3-r2m2NQ43wk-1" target="D7RnyqrD7TSsdvKjuRl5-4">
          <mxGeometry relative="1" as="geometry" />
        </mxCell>
        <mxCell id="D7RnyqrD7TSsdvKjuRl5-12" style="edgeStyle=orthogonalEdgeStyle;rounded=0;orthogonalLoop=1;jettySize=auto;html=1;exitX=1;exitY=1;exitDx=0;exitDy=0;exitPerimeter=0;entryX=0;entryY=0.5;entryDx=0;entryDy=0;" edge="1" parent="1" source="otnVlE3y3-r2m2NQ43wk-1" target="D7RnyqrD7TSsdvKjuRl5-6">
          <mxGeometry relative="1" as="geometry" />
        </mxCell>
        <mxCell id="9e-IZ0CjGGf-D902P03D-2" style="edgeStyle=orthogonalEdgeStyle;rounded=0;orthogonalLoop=1;jettySize=auto;html=1;exitX=0.5;exitY=0.5;exitDx=0;exitDy=0;exitPerimeter=0;entryX=0;entryY=0.5;entryDx=0;entryDy=0;" edge="1" parent="1" source="otnVlE3y3-r2m2NQ43wk-1" target="9e-IZ0CjGGf-D902P03D-1">
          <mxGeometry relative="1" as="geometry" />
        </mxCell>
        <mxCell id="otnVlE3y3-r2m2NQ43wk-1" value="platform" style="shape=umlActor;verticalLabelPosition=bottom;verticalAlign=top;html=1;" parent="1" vertex="1">
          <mxGeometry x="90" y="260" width="30" height="60" as="geometry" />
        </mxCell>
        <mxCell id="otnVlE3y3-r2m2NQ43wk-11" style="edgeStyle=orthogonalEdgeStyle;rounded=0;orthogonalLoop=1;jettySize=auto;html=1;exitX=0.5;exitY=0.5;exitDx=0;exitDy=0;exitPerimeter=0;entryX=1;entryY=0.5;entryDx=0;entryDy=0;" parent="1" source="otnVlE3y3-r2m2NQ43wk-2" target="otnVlE3y3-r2m2NQ43wk-5" edge="1">
          <mxGeometry relative="1" as="geometry" />
        </mxCell>
        <mxCell id="otnVlE3y3-r2m2NQ43wk-12" style="edgeStyle=orthogonalEdgeStyle;rounded=0;orthogonalLoop=1;jettySize=auto;html=1;exitX=0.5;exitY=0.5;exitDx=0;exitDy=0;exitPerimeter=0;entryX=1;entryY=0.5;entryDx=0;entryDy=0;" parent="1" source="otnVlE3y3-r2m2NQ43wk-2" target="otnVlE3y3-r2m2NQ43wk-6" edge="1">
          <mxGeometry relative="1" as="geometry" />
        </mxCell>
        <mxCell id="otnVlE3y3-r2m2NQ43wk-13" style="edgeStyle=orthogonalEdgeStyle;rounded=0;orthogonalLoop=1;jettySize=auto;html=1;exitX=0.5;exitY=0.5;exitDx=0;exitDy=0;exitPerimeter=0;entryX=1;entryY=0.5;entryDx=0;entryDy=0;" parent="1" source="otnVlE3y3-r2m2NQ43wk-2" target="otnVlE3y3-r2m2NQ43wk-9" edge="1">
          <mxGeometry relative="1" as="geometry" />
        </mxCell>
        <mxCell id="otnVlE3y3-r2m2NQ43wk-2" value="suppliers" style="shape=umlActor;verticalLabelPosition=bottom;verticalAlign=top;html=1;" parent="1" vertex="1">
          <mxGeometry x="710" y="160" width="30" height="60" as="geometry" />
        </mxCell>
        <mxCell id="otnVlE3y3-r2m2NQ43wk-5" value="register account" style="ellipse;whiteSpace=wrap;html=1;" parent="1" vertex="1">
          <mxGeometry x="350" y="-60" width="120" height="80" as="geometry" />
        </mxCell>
        <mxCell id="otnVlE3y3-r2m2NQ43wk-6" value="upload products" style="ellipse;whiteSpace=wrap;html=1;" parent="1" vertex="1">
          <mxGeometry x="350" y="60" width="120" height="80" as="geometry" />
        </mxCell>
        <mxCell id="otnVlE3y3-r2m2NQ43wk-7" value="manage products" style="ellipse;whiteSpace=wrap;html=1;" parent="1" vertex="1">
          <mxGeometry x="350" y="320" width="120" height="80" as="geometry" />
        </mxCell>
        <mxCell id="otnVlE3y3-r2m2NQ43wk-9" value="update products info" style="ellipse;whiteSpace=wrap;html=1;" parent="1" vertex="1">
          <mxGeometry x="350" y="430" width="120" height="80" as="geometry" />
        </mxCell>
        <mxCell id="D7RnyqrD7TSsdvKjuRl5-8" style="edgeStyle=orthogonalEdgeStyle;rounded=0;orthogonalLoop=1;jettySize=auto;html=1;exitX=0.5;exitY=0.5;exitDx=0;exitDy=0;exitPerimeter=0;entryX=1;entryY=0.5;entryDx=0;entryDy=0;" edge="1" parent="1" source="D7RnyqrD7TSsdvKjuRl5-3" target="D7RnyqrD7TSsdvKjuRl5-4">
          <mxGeometry relative="1" as="geometry" />
        </mxCell>
        <mxCell id="D7RnyqrD7TSsdvKjuRl5-9" style="edgeStyle=orthogonalEdgeStyle;rounded=0;orthogonalLoop=1;jettySize=auto;html=1;exitX=0.5;exitY=0.5;exitDx=0;exitDy=0;exitPerimeter=0;entryX=1;entryY=0.5;entryDx=0;entryDy=0;" edge="1" parent="1" source="D7RnyqrD7TSsdvKjuRl5-3" target="D7RnyqrD7TSsdvKjuRl5-6">
          <mxGeometry relative="1" as="geometry" />
        </mxCell>
        <mxCell id="D7RnyqrD7TSsdvKjuRl5-3" value="users" style="shape=umlActor;verticalLabelPosition=bottom;verticalAlign=top;html=1;" vertex="1" parent="1">
          <mxGeometry x="710" y="640" width="30" height="60" as="geometry" />
        </mxCell>
        <mxCell id="D7RnyqrD7TSsdvKjuRl5-4" value="order products" style="ellipse;whiteSpace=wrap;html=1;" vertex="1" parent="1">
          <mxGeometry x="340" y="590" width="120" height="80" as="geometry" />
        </mxCell>
        <mxCell id="D7RnyqrD7TSsdvKjuRl5-6" value="make payments (delete)" style="ellipse;whiteSpace=wrap;html=1;" vertex="1" parent="1">
          <mxGeometry x="340" y="680" width="120" height="80" as="geometry" />
        </mxCell>
        <mxCell id="9e-IZ0CjGGf-D902P03D-1" value="approve products" style="ellipse;whiteSpace=wrap;html=1;" vertex="1" parent="1">
          <mxGeometry x="350" y="180" width="120" height="80" as="geometry" />
        </mxCell>
      </root>
    </mxGraphModel>
  </diagram>
  <diagram id="8WiM7awgASSFZqjmYkqC" name="Activity Diagram">
    <mxGraphModel dx="1948" dy="834" grid="1" gridSize="10" guides="1" tooltips="1" connect="1" arrows="1" fold="1" page="1" pageScale="1" pageWidth="850" pageHeight="1100" math="0" shadow="0">
      <root>
        <mxCell id="0" />
        <mxCell id="1" parent="0" />
        <mxCell id="8fuKoQOsYQC5Oq5qR4_i-2" value="" style="ellipse;html=1;shape=startState;fillColor=#000000;strokeColor=#ff0000;" vertex="1" parent="1">
          <mxGeometry x="225" y="250" width="30" height="30" as="geometry" />
        </mxCell>
        <mxCell id="8fuKoQOsYQC5Oq5qR4_i-3" value="" style="edgeStyle=orthogonalEdgeStyle;html=1;verticalAlign=bottom;endArrow=open;endSize=8;strokeColor=#ff0000;rounded=0;" edge="1" source="8fuKoQOsYQC5Oq5qR4_i-2" parent="1">
          <mxGeometry relative="1" as="geometry">
            <mxPoint x="240" y="340" as="targetPoint" />
          </mxGeometry>
        </mxCell>
        <mxCell id="8fuKoQOsYQC5Oq5qR4_i-9" value="create supplier account" style="rounded=1;whiteSpace=wrap;html=1;arcSize=40;fontColor=#000000;fillColor=#ffffc0;strokeColor=#ff0000;" vertex="1" parent="1">
          <mxGeometry x="180" y="340" width="120" height="40" as="geometry" />
        </mxCell>
        <mxCell id="8fuKoQOsYQC5Oq5qR4_i-10" value="" style="edgeStyle=orthogonalEdgeStyle;html=1;verticalAlign=bottom;endArrow=open;endSize=8;strokeColor=#ff0000;rounded=0;" edge="1" source="8fuKoQOsYQC5Oq5qR4_i-9" parent="1">
          <mxGeometry relative="1" as="geometry">
            <mxPoint x="240" y="440" as="targetPoint" />
          </mxGeometry>
        </mxCell>
        <mxCell id="8fuKoQOsYQC5Oq5qR4_i-11" value="True?" style="rhombus;whiteSpace=wrap;html=1;fillColor=#ffffc0;strokeColor=#ff0000;" vertex="1" parent="1">
          <mxGeometry x="200" y="440" width="80" height="40" as="geometry" />
        </mxCell>
        <mxCell id="8fuKoQOsYQC5Oq5qR4_i-12" value="no" style="edgeStyle=orthogonalEdgeStyle;html=1;align=left;verticalAlign=bottom;endArrow=open;endSize=8;strokeColor=#ff0000;rounded=0;" edge="1" source="8fuKoQOsYQC5Oq5qR4_i-11" parent="1" target="8fuKoQOsYQC5Oq5qR4_i-25">
          <mxGeometry x="-1" relative="1" as="geometry">
            <mxPoint x="380" y="460" as="targetPoint" />
          </mxGeometry>
        </mxCell>
        <mxCell id="8fuKoQOsYQC5Oq5qR4_i-13" value="yes" style="edgeStyle=orthogonalEdgeStyle;html=1;align=left;verticalAlign=top;endArrow=open;endSize=8;strokeColor=#ff0000;rounded=0;" edge="1" source="8fuKoQOsYQC5Oq5qR4_i-11" parent="1">
          <mxGeometry x="-1" relative="1" as="geometry">
            <mxPoint x="240" y="540" as="targetPoint" />
          </mxGeometry>
        </mxCell>
        <mxCell id="8fuKoQOsYQC5Oq5qR4_i-14" value="login" style="rounded=1;whiteSpace=wrap;html=1;arcSize=40;fontColor=#000000;fillColor=#ffffc0;strokeColor=#ff0000;" vertex="1" parent="1">
          <mxGeometry x="180" y="540" width="120" height="40" as="geometry" />
        </mxCell>
        <mxCell id="8fuKoQOsYQC5Oq5qR4_i-15" value="" style="edgeStyle=orthogonalEdgeStyle;html=1;verticalAlign=bottom;endArrow=open;endSize=8;strokeColor=#ff0000;rounded=0;" edge="1" source="8fuKoQOsYQC5Oq5qR4_i-14" parent="1">
          <mxGeometry relative="1" as="geometry">
            <mxPoint x="240" y="640" as="targetPoint" />
          </mxGeometry>
        </mxCell>
        <mxCell id="8fuKoQOsYQC5Oq5qR4_i-17" value="True?" style="rhombus;whiteSpace=wrap;html=1;fillColor=#ffffc0;strokeColor=#ff0000;" vertex="1" parent="1">
          <mxGeometry x="200" y="640" width="80" height="40" as="geometry" />
        </mxCell>
        <mxCell id="8fuKoQOsYQC5Oq5qR4_i-18" value="no" style="edgeStyle=orthogonalEdgeStyle;html=1;align=left;verticalAlign=bottom;endArrow=open;endSize=8;strokeColor=#ff0000;rounded=0;exitX=0;exitY=0.5;exitDx=0;exitDy=0;entryX=0;entryY=0.5;entryDx=0;entryDy=0;" edge="1" source="8fuKoQOsYQC5Oq5qR4_i-17" parent="1" target="8fuKoQOsYQC5Oq5qR4_i-9">
          <mxGeometry x="-1" relative="1" as="geometry">
            <mxPoint x="380" y="660" as="targetPoint" />
            <Array as="points">
              <mxPoint x="110" y="660" />
              <mxPoint x="110" y="360" />
            </Array>
          </mxGeometry>
        </mxCell>
        <mxCell id="8fuKoQOsYQC5Oq5qR4_i-19" value="yes" style="edgeStyle=orthogonalEdgeStyle;html=1;align=left;verticalAlign=top;endArrow=open;endSize=8;strokeColor=#ff0000;rounded=0;" edge="1" source="8fuKoQOsYQC5Oq5qR4_i-17" parent="1">
          <mxGeometry x="-1" relative="1" as="geometry">
            <mxPoint x="240" y="740" as="targetPoint" />
          </mxGeometry>
        </mxCell>
        <mxCell id="8fuKoQOsYQC5Oq5qR4_i-29" style="edgeStyle=orthogonalEdgeStyle;rounded=0;orthogonalLoop=1;jettySize=auto;html=1;exitX=1;exitY=0.5;exitDx=0;exitDy=0;" edge="1" parent="1" source="8fuKoQOsYQC5Oq5qR4_i-20" target="8fuKoQOsYQC5Oq5qR4_i-27">
          <mxGeometry relative="1" as="geometry" />
        </mxCell>
        <mxCell id="8fuKoQOsYQC5Oq5qR4_i-20" value="add products info" style="rounded=1;whiteSpace=wrap;html=1;arcSize=40;fontColor=#000000;fillColor=#ffffc0;strokeColor=#ff0000;" vertex="1" parent="1">
          <mxGeometry x="180" y="740" width="120" height="40" as="geometry" />
        </mxCell>
        <mxCell id="8fuKoQOsYQC5Oq5qR4_i-25" value="" style="ellipse;html=1;shape=endState;fillColor=#000000;strokeColor=#ff0000;" vertex="1" parent="1">
          <mxGeometry x="365" y="445" width="30" height="30" as="geometry" />
        </mxCell>
        <mxCell id="8fuKoQOsYQC5Oq5qR4_i-36" style="edgeStyle=orthogonalEdgeStyle;rounded=0;orthogonalLoop=1;jettySize=auto;html=1;exitX=0.5;exitY=1;exitDx=0;exitDy=0;entryX=0.5;entryY=0;entryDx=0;entryDy=0;" edge="1" parent="1" source="8fuKoQOsYQC5Oq5qR4_i-27" target="8fuKoQOsYQC5Oq5qR4_i-33">
          <mxGeometry relative="1" as="geometry" />
        </mxCell>
        <mxCell id="8fuKoQOsYQC5Oq5qR4_i-27" value="Admin approved selling products" style="rounded=1;whiteSpace=wrap;html=1;arcSize=40;fontColor=#000000;fillColor=#ffffc0;strokeColor=#ff0000;" vertex="1" parent="1">
          <mxGeometry x="570" y="740" width="120" height="40" as="geometry" />
        </mxCell>
        <mxCell id="8fuKoQOsYQC5Oq5qR4_i-30" value="approve and update product details info (Except inventory)" style="rounded=1;whiteSpace=wrap;html=1;arcSize=40;fontColor=#000000;fillColor=#ffffc0;strokeColor=#ff0000;" vertex="1" parent="1">
          <mxGeometry x="570" y="940" width="120" height="40" as="geometry" />
        </mxCell>
        <mxCell id="8fuKoQOsYQC5Oq5qR4_i-31" value="" style="edgeStyle=orthogonalEdgeStyle;html=1;verticalAlign=bottom;endArrow=open;endSize=8;strokeColor=#ff0000;rounded=0;exitX=0;exitY=0.5;exitDx=0;exitDy=0;entryX=1;entryY=0.5;entryDx=0;entryDy=0;" edge="1" source="8fuKoQOsYQC5Oq5qR4_i-30" parent="1" target="8fuKoQOsYQC5Oq5qR4_i-39">
          <mxGeometry relative="1" as="geometry">
            <mxPoint x="630" y="1040" as="targetPoint" />
          </mxGeometry>
        </mxCell>
        <mxCell id="8fuKoQOsYQC5Oq5qR4_i-33" value="Product Selected?" style="rhombus;whiteSpace=wrap;html=1;fillColor=#ffffc0;strokeColor=#ff0000;" vertex="1" parent="1">
          <mxGeometry x="590" y="840" width="80" height="40" as="geometry" />
        </mxCell>
        <mxCell id="8fuKoQOsYQC5Oq5qR4_i-34" value="no" style="edgeStyle=orthogonalEdgeStyle;html=1;align=left;verticalAlign=bottom;endArrow=open;endSize=8;strokeColor=#ff0000;rounded=0;exitX=1;exitY=0.5;exitDx=0;exitDy=0;" edge="1" source="8fuKoQOsYQC5Oq5qR4_i-33" parent="1" target="8fuKoQOsYQC5Oq5qR4_i-38">
          <mxGeometry x="-1" relative="1" as="geometry">
            <mxPoint x="500" y="860" as="targetPoint" />
          </mxGeometry>
        </mxCell>
        <mxCell id="8fuKoQOsYQC5Oq5qR4_i-35" value="yes" style="edgeStyle=orthogonalEdgeStyle;html=1;align=left;verticalAlign=top;endArrow=open;endSize=8;strokeColor=#ff0000;rounded=0;" edge="1" source="8fuKoQOsYQC5Oq5qR4_i-33" parent="1">
          <mxGeometry x="-1" relative="1" as="geometry">
            <mxPoint x="630" y="940" as="targetPoint" />
          </mxGeometry>
        </mxCell>
        <mxCell id="8fuKoQOsYQC5Oq5qR4_i-38" value="" style="ellipse;html=1;shape=endState;fillColor=#000000;strokeColor=#ff0000;" vertex="1" parent="1">
          <mxGeometry x="750" y="845" width="30" height="30" as="geometry" />
        </mxCell>
        <mxCell id="8fuKoQOsYQC5Oq5qR4_i-39" value="update products inventory" style="rounded=1;whiteSpace=wrap;html=1;arcSize=40;fontColor=#000000;fillColor=#ffffc0;strokeColor=#ff0000;" vertex="1" parent="1">
          <mxGeometry x="180" y="940" width="120" height="40" as="geometry" />
        </mxCell>
        <mxCell id="8fuKoQOsYQC5Oq5qR4_i-40" value="" style="edgeStyle=orthogonalEdgeStyle;html=1;verticalAlign=bottom;endArrow=open;endSize=8;strokeColor=#ff0000;rounded=0;entryX=0;entryY=0.5;entryDx=0;entryDy=0;" edge="1" source="8fuKoQOsYQC5Oq5qR4_i-39" parent="1" target="8fuKoQOsYQC5Oq5qR4_i-41">
          <mxGeometry relative="1" as="geometry">
            <mxPoint x="240" y="1050" as="targetPoint" />
            <Array as="points">
              <mxPoint x="240" y="1060" />
            </Array>
          </mxGeometry>
        </mxCell>
        <mxCell id="8fuKoQOsYQC5Oq5qR4_i-50" style="edgeStyle=orthogonalEdgeStyle;rounded=0;orthogonalLoop=1;jettySize=auto;html=1;exitX=1;exitY=0.5;exitDx=0;exitDy=0;entryX=0;entryY=0.5;entryDx=0;entryDy=0;" edge="1" parent="1" source="8fuKoQOsYQC5Oq5qR4_i-41" target="8fuKoQOsYQC5Oq5qR4_i-45">
          <mxGeometry relative="1" as="geometry" />
        </mxCell>
        <mxCell id="8fuKoQOsYQC5Oq5qR4_i-41" value="update product inventory info" style="rounded=1;whiteSpace=wrap;html=1;arcSize=40;fontColor=#000000;fillColor=#ffffc0;strokeColor=#ff0000;" vertex="1" parent="1">
          <mxGeometry x="570" y="1040" width="120" height="40" as="geometry" />
        </mxCell>
        <mxCell id="8fuKoQOsYQC5Oq5qR4_i-42" value="update product status" style="rounded=1;whiteSpace=wrap;html=1;arcSize=40;fontColor=#000000;fillColor=#ffffc0;strokeColor=#ff0000;" vertex="1" parent="1">
          <mxGeometry x="570" y="1140" width="120" height="40" as="geometry" />
        </mxCell>
        <mxCell id="8fuKoQOsYQC5Oq5qR4_i-43" value="" style="edgeStyle=orthogonalEdgeStyle;html=1;verticalAlign=bottom;endArrow=open;endSize=8;strokeColor=#ff0000;rounded=0;" edge="1" source="8fuKoQOsYQC5Oq5qR4_i-42" parent="1" target="8fuKoQOsYQC5Oq5qR4_i-62">
          <mxGeometry relative="1" as="geometry">
            <mxPoint x="630" y="1280" as="targetPoint" />
          </mxGeometry>
        </mxCell>
        <mxCell id="8fuKoQOsYQC5Oq5qR4_i-45" value="Ordered Product ?" style="rhombus;whiteSpace=wrap;html=1;fillColor=#ffffc0;strokeColor=#ff0000;" vertex="1" parent="1">
          <mxGeometry x="970" y="1040" width="80" height="40" as="geometry" />
        </mxCell>
        <mxCell id="8fuKoQOsYQC5Oq5qR4_i-47" value="yes" style="edgeStyle=orthogonalEdgeStyle;html=1;align=left;verticalAlign=top;endArrow=open;endSize=8;strokeColor=#ff0000;rounded=0;exitX=0.5;exitY=1;exitDx=0;exitDy=0;" edge="1" source="8fuKoQOsYQC5Oq5qR4_i-45" parent="1">
          <mxGeometry x="-1" relative="1" as="geometry">
            <mxPoint x="1010" y="1120" as="targetPoint" />
          </mxGeometry>
        </mxCell>
        <mxCell id="8fuKoQOsYQC5Oq5qR4_i-53" style="edgeStyle=orthogonalEdgeStyle;rounded=0;orthogonalLoop=1;jettySize=auto;html=1;exitX=1;exitY=0.75;exitDx=0;exitDy=0;entryX=1;entryY=0.5;entryDx=0;entryDy=0;exitPerimeter=0;" edge="1" parent="1" source="8fuKoQOsYQC5Oq5qR4_i-54" target="8fuKoQOsYQC5Oq5qR4_i-42">
          <mxGeometry relative="1" as="geometry">
            <Array as="points">
              <mxPoint x="990" y="1160" />
              <mxPoint x="690" y="1160" />
            </Array>
          </mxGeometry>
        </mxCell>
        <mxCell id="8fuKoQOsYQC5Oq5qR4_i-51" value="Generate Order Financial Statement" style="rounded=1;whiteSpace=wrap;html=1;arcSize=40;fontColor=#000000;fillColor=#ffffc0;strokeColor=#ff0000;" vertex="1" parent="1">
          <mxGeometry x="960" y="1190" width="120" height="40" as="geometry" />
        </mxCell>
        <mxCell id="8fuKoQOsYQC5Oq5qR4_i-52" value="" style="edgeStyle=orthogonalEdgeStyle;html=1;verticalAlign=bottom;endArrow=open;endSize=8;strokeColor=#ff0000;rounded=0;" edge="1" source="8fuKoQOsYQC5Oq5qR4_i-51" parent="1" target="8fuKoQOsYQC5Oq5qR4_i-63">
          <mxGeometry relative="1" as="geometry">
            <mxPoint x="1020" y="1290" as="targetPoint" />
          </mxGeometry>
        </mxCell>
        <mxCell id="8fuKoQOsYQC5Oq5qR4_i-54" value="" style="html=1;points=[];perimeter=orthogonalPerimeter;direction=south;" vertex="1" parent="1">
          <mxGeometry x="970" y="1120" width="80" height="10" as="geometry" />
        </mxCell>
        <mxCell id="8fuKoQOsYQC5Oq5qR4_i-61" value="" style="endArrow=classic;html=1;rounded=0;" edge="1" parent="1" target="8fuKoQOsYQC5Oq5qR4_i-51">
          <mxGeometry width="50" height="50" relative="1" as="geometry">
            <mxPoint x="1020" y="1130" as="sourcePoint" />
            <mxPoint x="970" y="1170" as="targetPoint" />
          </mxGeometry>
        </mxCell>
        <mxCell id="8fuKoQOsYQC5Oq5qR4_i-62" value="" style="ellipse;html=1;shape=endState;fillColor=#000000;strokeColor=#ff0000;" vertex="1" parent="1">
          <mxGeometry x="615" y="1264.9999999999998" width="30" height="30" as="geometry" />
        </mxCell>
        <mxCell id="8fuKoQOsYQC5Oq5qR4_i-63" value="" style="ellipse;html=1;shape=endState;fillColor=#000000;strokeColor=#ff0000;" vertex="1" parent="1">
          <mxGeometry x="1005" y="1274.9999999999998" width="30" height="30" as="geometry" />
        </mxCell>
        <mxCell id="8fuKoQOsYQC5Oq5qR4_i-68" value="Supplier" style="swimlane;" vertex="1" parent="1">
          <mxGeometry x="60" y="200" width="390" height="1140" as="geometry" />
        </mxCell>
        <mxCell id="8fuKoQOsYQC5Oq5qR4_i-69" value="Platform" style="swimlane;" vertex="1" parent="1">
          <mxGeometry x="450" y="200" width="390" height="1140" as="geometry" />
        </mxCell>
        <mxCell id="8fuKoQOsYQC5Oq5qR4_i-70" value="User" style="swimlane;" vertex="1" parent="1">
          <mxGeometry x="840" y="200" width="390" height="1140" as="geometry" />
        </mxCell>
      </root>
    </mxGraphModel>
  </diagram>
  <diagram id="tJTL4Pm6WWZNUWAz3Xqw" name="State Diagram">
    <mxGraphModel dx="1266" dy="542" grid="1" gridSize="10" guides="1" tooltips="1" connect="1" arrows="1" fold="1" page="1" pageScale="1" pageWidth="850" pageHeight="1100" math="0" shadow="0">
      <root>
        <mxCell id="0" />
        <mxCell id="1" parent="0" />
        <mxCell id="KLiT7YvcpH8t8QayQ7co-6" value="" style="ellipse;html=1;shape=startState;fillColor=#000000;strokeColor=#ff0000;" vertex="1" parent="1">
          <mxGeometry x="110" y="350" width="30" height="30" as="geometry" />
        </mxCell>
        <mxCell id="KLiT7YvcpH8t8QayQ7co-7" value="" style="edgeStyle=orthogonalEdgeStyle;html=1;verticalAlign=bottom;endArrow=open;endSize=8;strokeColor=#ff0000;rounded=0;exitX=1;exitY=0.5;exitDx=0;exitDy=0;" edge="1" source="KLiT7YvcpH8t8QayQ7co-6" parent="1">
          <mxGeometry relative="1" as="geometry">
            <mxPoint x="240" y="365" as="targetPoint" />
          </mxGeometry>
        </mxCell>
        <mxCell id="KLiT7YvcpH8t8QayQ7co-8" value="Submit Products" style="text;html=1;strokeColor=none;fillColor=none;align=center;verticalAlign=middle;whiteSpace=wrap;rounded=0;" vertex="1" parent="1">
          <mxGeometry x="130" y="335" width="100" height="30" as="geometry" />
        </mxCell>
        <mxCell id="KLiT7YvcpH8t8QayQ7co-14" style="edgeStyle=orthogonalEdgeStyle;rounded=0;orthogonalLoop=1;jettySize=auto;html=1;exitX=1;exitY=0.5;exitDx=0;exitDy=0;entryX=0;entryY=0.5;entryDx=0;entryDy=0;" edge="1" parent="1" source="KLiT7YvcpH8t8QayQ7co-10" target="KLiT7YvcpH8t8QayQ7co-13">
          <mxGeometry relative="1" as="geometry" />
        </mxCell>
        <mxCell id="KLiT7YvcpH8t8QayQ7co-10" value="product added (without approved &amp;amp; inventory)" style="rounded=1;whiteSpace=wrap;html=1;" vertex="1" parent="1">
          <mxGeometry x="240" y="335" width="120" height="60" as="geometry" />
        </mxCell>
        <mxCell id="KLiT7YvcpH8t8QayQ7co-18" style="edgeStyle=orthogonalEdgeStyle;rounded=0;orthogonalLoop=1;jettySize=auto;html=1;exitX=1;exitY=0.5;exitDx=0;exitDy=0;entryX=0;entryY=0.5;entryDx=0;entryDy=0;" edge="1" parent="1" source="KLiT7YvcpH8t8QayQ7co-13" target="KLiT7YvcpH8t8QayQ7co-17">
          <mxGeometry relative="1" as="geometry" />
        </mxCell>
        <mxCell id="KLiT7YvcpH8t8QayQ7co-13" value="Product approved and set the price" style="rounded=1;whiteSpace=wrap;html=1;" vertex="1" parent="1">
          <mxGeometry x="470" y="335" width="120" height="60" as="geometry" />
        </mxCell>
        <mxCell id="KLiT7YvcpH8t8QayQ7co-15" value="Approved Product &lt;br&gt;and Set its price" style="text;html=1;align=center;verticalAlign=middle;resizable=0;points=[];autosize=1;strokeColor=none;fillColor=none;" vertex="1" parent="1">
          <mxGeometry x="350" y="330" width="120" height="40" as="geometry" />
        </mxCell>
        <mxCell id="KLiT7YvcpH8t8QayQ7co-23" style="edgeStyle=orthogonalEdgeStyle;rounded=0;orthogonalLoop=1;jettySize=auto;html=1;exitX=1;exitY=0.5;exitDx=0;exitDy=0;entryX=0;entryY=0.5;entryDx=0;entryDy=0;" edge="1" parent="1" source="KLiT7YvcpH8t8QayQ7co-17" target="KLiT7YvcpH8t8QayQ7co-22">
          <mxGeometry relative="1" as="geometry" />
        </mxCell>
        <mxCell id="KLiT7YvcpH8t8QayQ7co-17" value="Products inventory change" style="rounded=1;whiteSpace=wrap;html=1;" vertex="1" parent="1">
          <mxGeometry x="690" y="335" width="120" height="60" as="geometry" />
        </mxCell>
        <mxCell id="KLiT7YvcpH8t8QayQ7co-19" value="Add Inventory" style="text;html=1;align=center;verticalAlign=middle;resizable=0;points=[];autosize=1;strokeColor=none;fillColor=none;" vertex="1" parent="1">
          <mxGeometry x="590" y="340" width="100" height="30" as="geometry" />
        </mxCell>
        <mxCell id="KLiT7YvcpH8t8QayQ7co-22" value="Product Order Status change and generate order" style="rounded=1;whiteSpace=wrap;html=1;" vertex="1" parent="1">
          <mxGeometry x="930" y="335" width="120" height="60" as="geometry" />
        </mxCell>
        <mxCell id="KLiT7YvcpH8t8QayQ7co-25" value="Producted Ordered" style="text;html=1;align=center;verticalAlign=middle;resizable=0;points=[];autosize=1;strokeColor=none;fillColor=none;" vertex="1" parent="1">
          <mxGeometry x="800" y="340" width="130" height="30" as="geometry" />
        </mxCell>
      </root>
    </mxGraphModel>
  </diagram>
</mxfile>
